<?xml version="1.0" encoding="UTF-8" standalone="no"?>
<!-- Created with Inkscape (http://www.inkscape.org/) -->

<svg
   xmlns:dc="http://purl.org/dc/elements/1.1/"
   xmlns:cc="http://creativecommons.org/ns#"
   xmlns:rdf="http://www.w3.org/1999/02/22-rdf-syntax-ns#"
   xmlns:svg="http://www.w3.org/2000/svg"
   xmlns="http://www.w3.org/2000/svg"
   xmlns:sodipodi="http://sodipodi.sourceforge.net/DTD/sodipodi-0.dtd"
   xmlns:inkscape="http://www.inkscape.org/namespaces/inkscape"
   width="330"
   height="510"
   viewBox="0 0 329.99999 509.99995"
   id="svg2"
   version="1.1"
   inkscape:version="0.91 r13725"
   sodipodi:docname="dokwew-logo.svg"
   inkscape:export-filename="D:\przemek\Documents\Praca\IEPiOE\dokwew\dokwew-logo.png"
   inkscape:export-xdpi="81.882355"
   inkscape:export-ydpi="81.882355">
  <defs
     id="defs4">
    <path
       style="fill:none;fill-rule:evenodd;stroke:#000000;stroke-width:1px;stroke-linecap:butt;stroke-linejoin:miter;stroke-opacity:1"
       d="m -20,1642.3622 0,-350 340,0 2.35549,359.6143"
       id="path4185-1"
       inkscape:connector-curvature="0"
       sodipodi:nodetypes="cccc" />
  </defs>
  <sodipodi:namedview
     id="base"
     pagecolor="#ffffff"
     bordercolor="#666666"
     borderopacity="1.0"
     inkscape:pageopacity="0.0"
     inkscape:pageshadow="2"
     inkscape:zoom="1.7411765"
     inkscape:cx="165"
     inkscape:cy="255"
     inkscape:document-units="px"
     inkscape:current-layer="g4159"
     showgrid="true"
     inkscape:snap-object-midpoints="true"
     inkscape:window-width="1920"
     inkscape:window-height="1057"
     inkscape:window-x="-8"
     inkscape:window-y="-8"
     inkscape:window-maximized="1"
     fit-margin-left="5"
     fit-margin-right="5"
     fit-margin-top="5"
     fit-margin-bottom="5"
     units="px"
     inkscape:snap-center="true"
     showguides="true"
     inkscape:guide-bbox="true">
    <inkscape:grid
       type="xygrid"
       id="grid4136"
       originx="-514.99991"
       originy="-10.000333" />
    <sodipodi:guide
       position="165.00007,79.999656"
       orientation="1,0"
       id="guide4239" />
    <sodipodi:guide
       position="165.00007,79.999656"
       orientation="0,1"
       id="guide4241" />
    <sodipodi:guide
       position="165.00007,229.99963"
       orientation="0,1"
       id="guide4243" />
    <sodipodi:guide
       position="165.00007,254.99963"
       orientation="0,1"
       id="guide4280" />
  </sodipodi:namedview>
  <metadata
     id="metadata7">
    <rdf:RDF>
      <cc:Work
         rdf:about="">
        <dc:format>image/svg+xml</dc:format>
        <dc:type
           rdf:resource="http://purl.org/dc/dcmitype/StillImage" />
        <dc:title></dc:title>
      </cc:Work>
    </rdf:RDF>
  </metadata>
  <g
     inkscape:label="Layer 1"
     inkscape:groupmode="layer"
     id="layer1"
     transform="translate(-514.99992,-532.36231)">
    <g
       id="g4159"
       transform="translate(-116.25985,94.999963)">
      <path
         style="opacity:0.5;fill:#000000;fill-opacity:1;stroke:none;stroke-width:8;stroke-linecap:butt;stroke-linejoin:round;stroke-miterlimit:4;stroke-dasharray:none;stroke-dashoffset:2;stroke-opacity:1"
         d="M 5,9.9999965 5,500 c 7.44e-5,4.00033 1.0000744,5.00033 5,5 l 310.03211,0 c 3.96796,3.3e-4 4.96796,-0.99967 4.96789,-5 L 325,9.9999965 C 325,6.0003305 324.00007,5 320,5 L 10,5 C 6.0000744,5.0003305 5.0000744,6.0003305 5,9.9999965 Z M 25,55 l 30,0 0,150 30,0 0,-55 30,0 0,55 100,-50 0,50 100,-50 0,200 -300,0 0,-150 10,0 z m 60,50 30,0 0,10 -30,0 z m 0,15 30,0.002 0,10 -30,0 z m 0,15 30,0 0,10 -30,0 z m 12.916016,244.66797 3.400394,0 0,24.80078 14.65039,-14.30078 3.84961,0 -10.65039,10.65039 11.05078,15.34961 -3.70118,0 -9.5996,-13.34961 -5.59961,5.20117 0,8.14844 -3.400394,0 z m -65.867188,1 12.048828,0 c 2.833334,0 5.300391,0.46706 7.400391,1.40039 2.133333,0.93333 3.900781,2.20078 5.300781,3.80078 1.433333,1.6 2.499219,3.48372 3.199219,5.65039 0.733333,2.13333 1.099609,4.41628 1.099609,6.84961 0,2.7 -0.399218,5.14961 -1.199218,7.34961 -0.8,2.16667 -1.949219,4.03294 -3.449219,5.59961 -1.466667,1.53333 -3.251563,2.73294 -5.351563,3.59961 -2.066666,0.83333 -4.4,1.25 -7,1.25 l -12.048828,0 z m 230.015622,0.65039 3.40039,0 0,8.80078 6,0 0,2.69922 -6,0 0,17.70117 c 0.0667,0.96667 0.4,1.68177 1,2.14844 0.63334,0.43333 1.35039,0.65039 2.15039,0.65039 0.96667,0 1.81745,-0.14922 2.55079,-0.44922 0.73333,-0.33333 1.19843,-0.56784 1.39843,-0.70117 l 0.90039,2.75 c -0.2,0.1 -0.50039,0.23372 -0.90039,0.40039 -0.36666,0.16667 -0.79883,0.33333 -1.29883,0.5 -0.5,0.16667 -1.06783,0.31784 -1.70117,0.45117 -0.63333,0.13333 -1.3,0.19922 -2,0.19922 -0.73333,0 -1.43294,-0.10078 -2.09961,-0.30078 -0.66666,-0.2 -1.25,-0.49844 -1.75,-0.89844 -0.5,-0.43333 -0.89919,-0.96823 -1.19922,-1.60156 -0.3,-0.63333 -0.45117,-1.36589 -0.45117,-2.19922 l 0,-18.65039 -3.59961,0 0,-2.69922 3.59961,0 z m -226.515622,2.45117 0,29.29883 8.548828,0 c 2.2,0 4.134115,-0.36628 5.800782,-1.09961 1.699998,-0.76667 3.116664,-1.79961 4.25,-3.09961 1.133333,-1.33333 1.984114,-2.88372 2.550781,-4.65039 0.6,-1.8 0.898437,-3.74961 0.898437,-5.84961 0,-2.13333 -0.298437,-4.08294 -0.898437,-5.84961 -0.6,-1.8 -1.483724,-3.35039 -2.650391,-4.65039 -1.133333,-1.3 -2.534505,-2.3 -4.201172,-3 -1.666666,-0.73333 -3.583333,-1.09961 -5.75,-1.09961 z m 43.16211,5.89844 c 1.866664,0 3.583723,0.36823 5.15039,1.10156 1.6,0.73333 2.966262,1.71589 4.09961,2.94922 1.166666,1.23333 2.065885,2.66745 2.699218,4.30078 0.666667,1.63333 1,3.36589 1,5.19922 0,1.8 -0.315902,3.51706 -0.949218,5.15039 -0.633336,1.63333 -1.532553,3.0655 -2.699219,4.29883 -1.133334,1.23333 -2.501563,2.21784 -4.101563,2.95117 -1.566666,0.7 -3.299218,1.04883 -5.199218,1.04883 -1.900003,0 -3.632553,-0.34883 -5.199219,-1.04883 -1.566667,-0.73333 -2.934896,-1.71784 -4.101563,-2.95117 -1.133333,-1.23333 -2.015104,-2.6655 -2.648437,-4.29883 -0.633334,-1.63333 -0.951172,-3.35039 -0.951172,-5.15039 0,-1.83333 0.317838,-3.56589 0.951172,-5.19922 0.666666,-1.63333 1.565883,-3.06745 2.699219,-4.30078 1.166666,-1.23333 2.532942,-2.21589 4.099609,-2.94922 1.566667,-0.73333 3.283724,-1.10156 5.150391,-1.10156 z m 89.447262,0 c 2.2,0 3.95,0.61823 5.25,1.85156 1.33334,1.23333 2.14922,2.84961 2.44922,4.84961 2.43334,-4.46667 5.78412,-6.70117 10.05078,-6.70117 1.46667,0 2.69922,0.26745 3.69922,0.80078 1.03334,0.53333 1.85117,1.30078 2.45117,2.30078 0.63334,0.96667 1.08295,2.14883 1.34961,3.54883 0.3,1.36667 0.44922,2.89961 0.44922,4.59961 l 0,15.25 -3.39844,0 0,-14.54883 c 0,-3.03333 -0.4845,-5.26784 -1.45117,-6.70117 -0.96666,-1.43333 -2.39883,-2.14844 -4.29883,-2.14844 -1,0 -1.95156,0.18216 -2.85156,0.54883 -0.86666,0.36667 -1.68255,0.88411 -2.44922,1.55078 -0.73333,0.66667 -1.38255,1.46706 -1.94922,2.40039 -0.56666,0.9 -1.00078,1.9 -1.30078,3 l 0,15.89844 -3.40039,0 0,-14.54883 c 0,-3.1 -0.46705,-5.35 -1.40039,-6.75 -0.93333,-1.4 -2.36549,-2.09961 -4.29883,-2.09961 -1.96666,0 -3.71666,0.68216 -5.25,2.04883 -1.53333,1.36667 -2.63411,3.16706 -3.30078,5.40039 l 0,15.94922 -3.40039,0 0,-26.04883 3.10156,0 0,5.90039 c 1.06667,-2 2.46589,-3.55039 4.19922,-4.65039 1.73334,-1.13333 3.65,-1.70117 5.75,-1.70117 z m 44.66602,0 c 1.9,0 3.6345,0.36823 5.20117,1.10156 1.6,0.7 2.96628,1.66511 4.09961,2.89844 1.13333,1.23333 2.01706,2.65 2.65039,4.25 0.63333,1.6 0.94922,3.30156 0.94922,5.10156 l 0,0.79883 c 0,0.26667 -0.0175,0.45078 -0.0508,0.55078 l -22.29883,0 c 0.1,1.4 0.41589,2.70039 0.94922,3.90039 0.56667,1.16667 1.28372,2.18216 2.15039,3.04883 0.86667,0.86667 1.84922,1.55078 2.94922,2.05078 1.13333,0.46667 2.33489,0.69922 3.60156,0.69922 0.83333,0 1.66667,-0.11628 2.5,-0.34961 0.83333,-0.23333 1.59883,-0.54922 2.29883,-0.94922 0.7,-0.4 1.33372,-0.8845 1.90039,-1.45117 0.56667,-0.6 1.00078,-1.24922 1.30078,-1.94922 l 2.94922,0.79883 c -0.4,0.96667 -0.96589,1.85039 -1.69922,2.65039 -0.73333,0.76667 -1.58411,1.45078 -2.55078,2.05078 -0.96667,0.56667 -2.03255,0.99883 -3.19922,1.29883 -1.16667,0.33333 -2.38372,0.5 -3.65039,0.5 -1.9,0 -3.65,-0.34883 -5.25,-1.04883 -1.56667,-0.73333 -2.93294,-1.71784 -4.09961,-2.95117 -1.16667,-1.26667 -2.08333,-2.71628 -2.75,-4.34961 -0.63333,-1.63333 -0.95117,-3.38333 -0.95117,-5.25 0,-1.83333 0.31784,-3.55039 0.95117,-5.15039 0.66667,-1.63333 1.56589,-3.05 2.69922,-4.25 1.16667,-1.23333 2.55039,-2.19844 4.15039,-2.89844 1.6,-0.73333 3.33255,-1.10156 5.19922,-1.10156 z m 32.86523,0 c 1.43334,0 2.65039,0.26745 3.65039,0.80078 1,0.53333 1.79844,1.28333 2.39844,2.25 0.6,0.96667 1.03412,2.15078 1.30078,3.55078 0.26667,1.4 0.40039,2.94844 0.40039,4.64844 l 0,15.25 -3.40039,0 0,-14.54883 c 0,-3.1 -0.46705,-5.35 -1.40039,-6.75 -0.9,-1.4 -2.29922,-2.09961 -4.19922,-2.09961 -1,0 -2,0.18216 -3,0.54883 -1,0.36667 -1.93411,0.88411 -2.80078,1.55078 -0.83333,0.66667 -1.58333,1.46706 -2.25,2.40039 -0.66666,0.9 -1.14922,1.88255 -1.44922,2.94922 l 0,15.94922 -3.40039,0 0,-26.04883 3.09961,0 0,5.90039 c 1.06667,-1.9 2.58412,-3.43489 4.55078,-4.60156 2,-1.16667 4.16667,-1.75 6.5,-1.75 z m -121.03906,0.45117 3.40039,0 0,14.69922 c 0,5.9 2.01745,8.84961 6.05078,8.84961 1,0 1.98255,-0.16667 2.94922,-0.5 0.96667,-0.33333 1.85039,-0.81589 2.65039,-1.44922 0.83334,-0.63333 1.56589,-1.38333 2.19922,-2.25 0.66667,-0.86667 1.19961,-1.84922 1.59961,-2.94922 l 0,-16.40039 3.40039,0 0,21.65039 c 0,0.93333 0.40117,1.39844 1.20117,1.39844 l 0,3 c -0.4,0.0667 -0.73333,0.10156 -1,0.10156 l -0.5,0 c -0.8,-0.0333 -1.45117,-0.31823 -1.95117,-0.85156 -0.5,-0.53333 -0.75,-1.24844 -0.75,-2.14844 l 0,-3 c -1.13333,2.03333 -2.68372,3.61667 -4.65039,4.75 -1.93333,1.1 -3.99922,1.64844 -6.19922,1.64844 -2.83333,0 -4.94961,-0.93216 -6.34961,-2.79883 -1.36666,-1.9 -2.05078,-4.71784 -2.05078,-8.45117 z m 150.63086,0 3.5,0 9.65039,22.90039 8.95117,-22.90039 3.25,0 -13.5,33.59961 c -0.36666,0.96667 -0.98489,1.8 -1.85156,2.5 -0.83333,0.73333 -1.98255,1.09961 -3.44922,1.09961 -0.33333,0 -0.64922,-0.0155 -0.94922,-0.0488 -0.3,0 -0.66823,-0.0349 -1.10156,-0.10156 l 0,-3 c 0.26667,0.0333 0.51667,0.0508 0.75,0.0508 0.26667,0.0333 0.51667,0.0508 0.75,0.0508 0.6,0 1.06706,-0.0833 1.40039,-0.25 0.36667,-0.16667 0.71745,-0.53489 1.05078,-1.10156 0.33334,-0.56667 0.69961,-1.38255 1.09961,-2.44922 0.43333,-1.06667 1.03412,-2.50078 1.80078,-4.30078 z m -62.40625,2.19922 c -1.26667,0 -2.46628,0.2345 -3.59961,0.70117 -1.13333,0.46667 -2.13333,1.11589 -3,1.94922 -0.83333,0.83333 -1.51745,1.83333 -2.05078,3 -0.5,1.16667 -0.80039,2.43411 -0.90039,3.80078 l 19.15039,0 c -0.1,-1.4 -0.43333,-2.66745 -1,-3.80078 -0.53333,-1.16667 -1.23294,-2.16667 -2.09961,-3 -0.83333,-0.83333 -1.81784,-1.48255 -2.95117,-1.94922 -1.1,-0.46667 -2.28216,-0.70117 -3.54883,-0.70117 z m -134.164062,0.34961 c -1.300001,0 -2.517058,0.28489 -3.650391,0.85156 -1.133333,0.53333 -2.133333,1.28333 -3,2.25 -0.866667,0.96667 -1.548828,2.09844 -2.048828,3.39844 -0.5,1.26667 -0.75,2.63489 -0.75,4.10156 0,1.46667 0.25,2.83294 0.75,4.09961 0.5,1.23333 1.166666,2.33216 2,3.29883 0.866666,0.93333 1.866666,1.66784 3,2.20117 1.166666,0.53333 2.399218,0.79883 3.699219,0.79883 1.299998,0 2.517057,-0.2655 3.65039,-0.79883 1.166667,-0.56667 2.182162,-1.31667 3.048828,-2.25 0.866667,-0.96667 1.550764,-2.08294 2.050782,-3.34961 0.5,-1.26667 0.75,-2.63489 0.75,-4.10156 0,-1.43333 -0.25,-2.78216 -0.75,-4.04883 -0.5,-1.3 -1.184115,-2.41628 -2.050782,-3.34961 -0.866666,-0.96667 -1.882161,-1.71667 -3.048828,-2.25 -1.133333,-0.56667 -2.350403,-0.85156 -3.65039,-0.85156 z m -50.587891,48.68359 3.28125,0 11.287109,27.51758 5.90625,-14.04297 -5.423828,-13.25586 2.886719,0 4.375,11.02344 4.419922,-11.02344 2.929687,0 -5.423828,13.25586 5.949219,14.04297 11.244141,-27.51758 3.324218,0 -13.167968,31.0625 -2.712891,0 -6.517578,-15.35742 -6.5625,15.35742 -2.669922,0 z m 168.468753,0.56836 2.97461,0 0,7.69922 5.25,0 0,2.36328 -5.25,0 0,15.48633 c 0.0583,0.84583 0.35,1.47448 0.875,1.88281 0.55416,0.37917 1.18086,0.56836 1.88086,0.56836 0.84583,0 1.5888,-0.13203 2.23046,-0.39453 0.64167,-0.29167 1.05157,-0.49466 1.22657,-0.61133 l 0.78711,2.40625 c -0.175,0.0875 -0.43711,0.20378 -0.78711,0.34961 -0.32084,0.14584 -0.70116,0.29167 -1.13868,0.4375 -0.4375,0.14584 -0.93216,0.27591 -1.48632,0.39258 -0.55417,0.11667 -1.1375,0.17578 -1.75,0.17578 -0.64167,0 -1.25456,-0.0867 -1.83789,-0.26172 -0.58334,-0.175 -1.09375,-0.43906 -1.53125,-0.78906 -0.4375,-0.37917 -0.7883,-0.84427 -1.05078,-1.39844 -0.2625,-0.55416 -0.39258,-1.19661 -0.39258,-1.92578 l 0,-16.31836 -3.15039,0 0,-2.36328 3.15039,0 z m -110.931644,7.30664 c 1.6625,0 3.17994,0.31927 4.550782,0.96094 1.4,0.6125 2.596223,1.4599 3.58789,2.53906 0.991667,1.07917 1.764193,2.31875 2.31836,3.71875 0.554164,1.4 0.832031,2.88594 0.832031,4.46094 l 0,0.70117 c 0,0.23334 -0.01572,0.39297 -0.04492,0.48047 l -19.511719,0 c 0.0875,1.225 0.363412,2.36211 0.830078,3.41211 0.495834,1.02083 1.124479,1.91159 1.882813,2.66992 0.758333,0.75834 1.617578,1.35547 2.580078,1.79297 0.991667,0.40833 2.042057,0.61328 3.150391,0.61328 0.729166,0 1.458333,-0.10247 2.1875,-0.30664 0.729166,-0.20417 1.399218,-0.48203 2.011718,-0.83203 0.6125,-0.35 1.168229,-0.77174 1.664063,-1.26758 0.495833,-0.525 0.874218,-1.09453 1.136719,-1.70703 l 2.582031,0.70117 c -0.35,0.84584 -0.846615,1.61836 -1.488281,2.31836 -0.641667,0.67084 -1.384636,1.26797 -2.230469,1.79297 -0.845834,0.49583 -1.779948,0.87617 -2.800781,1.13867 -1.020834,0.29167 -2.085027,0.4375 -3.19336,0.4375 -1.6625,0 -3.19375,-0.30742 -4.59375,-0.91992 -1.370833,-0.64167 -2.567059,-1.50091 -3.58789,-2.58008 -1.020834,-1.10833 -1.822919,-2.37747 -2.40625,-3.80664 -0.554167,-1.42916 -0.832032,-2.96041 -0.832032,-4.59375 0,-1.60416 0.277865,-3.10586 0.832032,-4.50586 0.583331,-1.42916 1.371614,-2.66875 2.363281,-3.71875 1.020833,-1.07916 2.230859,-1.92656 3.630859,-2.53906 1.4,-0.64167 2.915495,-0.96094 4.548826,-0.96094 z m 67.250004,0 c 1.25416,0 2.32031,0.23255 3.19531,0.69922 0.875,0.46667 1.57461,1.12292 2.09961,1.96875 0.525,0.84583 0.90338,1.88047 1.13672,3.10547 0.23333,1.225 0.34961,2.58281 0.34961,4.07031 l 0,13.34375 -2.97461,0 0,-12.73242 c 0,-2.7125 -0.40795,-4.68125 -1.22461,-5.90625 -0.7875,-1.225 -2.01328,-1.83789 -3.67578,-1.83789 -0.875,0 -1.75,0.16159 -2.625,0.48242 -0.875,0.32084 -1.69089,0.77214 -2.44922,1.35547 -0.72917,0.58333 -1.38542,1.28294 -1.96875,2.09961 -0.58334,0.7875 -1.00703,1.6487 -1.26953,2.58203 l 0,13.95703 -2.97461,0 0,-22.79492 2.71289,0 0,5.16211 c 0.93333,-1.6625 2.25963,-3.0026 3.98047,-4.02344 1.75,-1.02083 3.64583,-1.53125 5.6875,-1.53125 z m 24.96875,0 c 1.6625,0 3.17994,0.31927 4.55078,0.96094 1.4,0.6125 2.59428,1.4599 3.58593,2.53906 0.99167,1.07917 1.76615,2.31875 2.32032,3.71875 0.55416,1.4 0.83008,2.88594 0.83008,4.46094 l 0,0.70117 c 0,0.23334 -0.0138,0.39297 -0.043,0.48047 l -19.51367,0 c 0.0875,1.225 0.36536,2.36211 0.83203,3.41211 0.49583,1.02083 1.12252,1.91159 1.88086,2.66992 0.75833,0.75834 1.61953,1.35547 2.58203,1.79297 0.99166,0.40833 2.04205,0.61328 3.15039,0.61328 0.72916,0 1.45833,-0.10247 2.1875,-0.30664 0.72916,-0.20417 1.39922,-0.48203 2.01172,-0.83203 0.6125,-0.35 1.16627,-0.77174 1.66211,-1.26758 0.49583,-0.525 0.87617,-1.09453 1.13867,-1.70703 l 2.58008,0.70117 c -0.6125,1.4875 -1.64714,2.72709 -3.10547,3.71875 -1.42917,0.99167 -3.0767,1.60261 -4.94336,1.83594 -1.28334,0.81667 -2.18789,1.53203 -2.71289,2.14453 -0.525,0.6125 -0.78711,1.23919 -0.78711,1.88086 0,1.07917 0.75677,1.72162 2.27344,1.92578 l -0.83008,1.66211 c -1.07917,-0.23333 -1.89701,-0.64127 -2.45118,-1.22461 -0.55416,-0.55416 -0.83007,-1.21041 -0.83007,-1.96875 0,-0.7 0.23255,-1.41536 0.69922,-2.14453 0.49583,-0.7 1.28411,-1.42917 2.36328,-2.1875 -1.575,-0.0875 -3.03334,-0.45208 -4.375,-1.09375 -1.3125,-0.64167 -2.44961,-1.50091 -3.41211,-2.58008 -0.93334,-1.07916 -1.67826,-2.31875 -2.23242,-3.71875 -0.525,-1.4 -0.78711,-2.88789 -0.78711,-4.46289 0,-1.60416 0.27786,-3.10586 0.83203,-4.50586 0.58333,-1.42916 1.36966,-2.66875 2.36133,-3.71875 1.02083,-1.07916 2.23085,-1.92656 3.63085,-2.53906 1.4,-0.64167 2.91745,-0.96094 4.55079,-0.96094 z m 87.74218,0 c 1.25417,0 2.31836,0.23255 3.19336,0.69922 0.875,0.46667 1.57461,1.12292 2.09961,1.96875 0.525,0.84583 0.90534,1.88047 1.13867,3.10547 0.23334,1.225 0.34961,2.58281 0.34961,4.07031 l 0,13.34375 -2.97461,0 0,-12.73242 c 0,-2.7125 -0.40793,-4.68125 -1.22461,-5.90625 -0.78748,-1.225 -2.01328,-1.83789 -3.67578,-1.83789 -0.875,0 -1.75,0.16159 -2.625,0.48242 -0.875,0.32084 -1.69088,0.77214 -2.44922,1.35547 -0.72916,0.58333 -1.38541,1.28294 -1.96874,2.09961 -0.58334,0.7875 -1.00704,1.6487 -1.26954,2.58203 l 0,13.95703 -2.97461,0 0,-22.79492 2.71289,0 0,5.16211 c 0.93334,-1.6625 2.25964,-3.0026 3.98047,-4.02344 1.75,-1.02083 3.64584,-1.53125 5.6875,-1.53125 z m 24.96875,0 c 1.6625,0 3.178,0.31927 4.54883,0.96094 1.4,0.6125 2.59623,1.4599 3.58789,2.53906 0.99167,1.07917 1.7642,2.31875 2.31836,3.71875 0.55417,1.4 0.83203,2.88594 0.83203,4.46094 l 0,0.70117 c 0,0.23334 -0.0157,0.39297 -0.0449,0.48047 l -19.51172,0 c 0.0875,1.225 0.36537,2.36211 0.83203,3.41211 0.49584,1.02083 1.12253,1.91159 1.88086,2.66992 0.75834,0.75834 1.61758,1.35547 2.58008,1.79297 0.99167,0.40833 2.04206,0.61328 3.15039,0.61328 0.72917,0 1.45834,-0.10247 2.1875,-0.30664 0.72917,-0.20417 1.40117,-0.48203 2.01367,-0.83203 0.6125,-0.35 1.16628,-0.77174 1.66211,-1.26758 0.49584,-0.525 0.87422,-1.09453 1.13672,-1.70703 l 2.58203,0.70117 c -0.35,0.84584 -0.84661,1.61836 -1.48828,2.31836 -0.64166,0.67084 -1.38463,1.26797 -2.23047,1.79297 -0.84583,0.49583 -1.77994,0.87617 -2.80078,1.13867 -1.02083,0.29167 -2.08502,0.4375 -3.19336,0.4375 -1.6625,0 -3.19375,-0.30742 -4.59375,-0.91992 -1.37083,-0.64167 -2.56705,-1.50091 -3.58789,-2.58008 -1.02083,-1.10833 -1.82291,-2.37747 -2.40625,-3.80664 -0.55416,-1.42916 -0.83008,-2.96041 -0.83008,-4.59375 0,-1.60416 0.27592,-3.10586 0.83008,-4.50586 0.58334,-1.42916 1.37162,-2.66875 2.36328,-3.71875 1.02084,-1.07916 2.23086,-1.92656 3.63086,-2.53906 1.4,-0.64167 2.91745,-0.96094 4.55078,-0.96094 z m -67.45703,0.26172 c 0.23334,0 0.42253,0.0138 0.56836,0.043 l 0,2.71289 c -2.0125,0.0583 -3.7625,0.61211 -5.25,1.66211 -1.4875,1.05 -2.53789,2.49453 -3.15039,4.33203 l 0,14.17578 -2.97461,0 0,-22.79492 2.79883,0 0,5.46875 c 0.84583,-1.75 1.9849,-3.11966 3.41406,-4.11133 1.42917,-0.99166 2.96042,-1.48828 4.59375,-1.48828 z m -122.77539,0.13086 2.88867,0 8.3125,19.73242 4.33008,-10.41406 -3.89258,-9.27344 2.49219,0 2.97656,7.4375 2.97461,-7.4375 2.53711,0 -3.89453,9.27344 4.33203,10.41406 8.26953,-19.73242 2.92969,0 -9.79883,22.79492 -2.45117,0 -4.89844,-11.63867 -4.85742,11.63867 -2.44922,0 z m 127.77344,0 18.28906,0 0,2.01367 -15.35742,18.54883 15.3125,0 0,2.23242 -18.59375,0 0,-2.01367 15.40039,-18.54883 -15.05078,0 z m -142.425782,1.92578 c -1.108333,0 -2.158726,0.203 -3.15039,0.61133 -0.991667,0.40833 -1.866667,0.97786 -2.625,1.70703 -0.729169,0.72917 -1.326303,1.60417 -1.792969,2.625 -0.4375,1.02083 -0.701563,2.12839 -0.789063,3.32422 l 16.757813,0 c -0.0875,-1.225 -0.379167,-2.33255 -0.875,-3.32422 -0.466667,-1.02083 -1.079558,-1.89583 -1.837891,-2.625 -0.729167,-0.72917 -1.590364,-1.2987 -2.582031,-1.70703 -0.9625,-0.40833 -1.997136,-0.61133 -3.105469,-0.61133 z m 92.216802,0 c -1.10834,0 -2.15678,0.203 -3.14844,0.61133 -0.99167,0.40833 -1.86667,0.97786 -2.625,1.70703 -0.72917,0.72917 -1.32826,1.60417 -1.79492,2.625 -0.4375,1.02083 -0.69961,2.12839 -0.78711,3.32422 l 16.75586,0 c -0.0875,-1.225 -0.37917,-2.33255 -0.875,-3.32422 -0.46667,-1.02083 -1.07956,-1.89583 -1.83789,-2.625 -0.72917,-0.72917 -1.58842,-1.2987 -2.58008,-1.70703 -0.9625,-0.40833 -1.99909,-0.61133 -3.10742,-0.61133 z m 112.71093,0 c -1.10833,0 -2.15872,0.203 -3.15039,0.61133 -0.99166,0.40833 -1.86666,0.97786 -2.625,1.70703 -0.72916,0.72917 -1.3263,1.60417 -1.79297,2.625 -0.4375,1.02083 -0.69961,2.12839 -0.78711,3.32422 l 16.75586,0 c -0.0875,-1.225 -0.37916,-2.33255 -0.875,-3.32422 -0.46666,-1.02083 -1.07955,-1.89583 -1.83789,-2.625 -0.72916,-0.72917 -1.59036,-1.2987 -2.58203,-1.70703 -0.9625,-0.40833 -1.99713,-0.61133 -3.10547,-0.61133 z"
         transform="translate(631.25977,437.36232)"
         id="rect4278"
         inkscape:connector-curvature="0"
         sodipodi:nodetypes="cccccssccccccccccccccccccccccccccccccccccccccccccccccscccscccsccccccccccsccccssssccscccccccscccscccscscccssccsccssccsssccscccsccsssccccccsssscccccccsscsssscccscsssccccccscccscccsscsssccscsscccccccccsccssscccccsccscssccscsccscccccsccccscccccsscccccccsscscscccscccscccsccccccccccccccccccccsccccccscccccsssccscccccsssssscccscsssccccccscccscccssssssccscsscccccccccssssssscccscssscccccsscccscccccscccssscssccscsscccccccccssccssscccscsssccccccscccscccsscccccccccssccccccccccccccccccccccccccccccsscccccccssscccccccsssccsccccscccs" />
      <path
         inkscape:connector-curvature="0"
         id="rect4157"
         d="m 781.25984,709.86242 15,14.99998 -74.99999,52.50053 104.99999,-52.50053 -15,-14.99998 60,-52.5 z"
         style="opacity:0.5;fill:#000000;fill-opacity:1;stroke:none;stroke-width:1;stroke-linecap:round;stroke-linejoin:miter;stroke-miterlimit:4;stroke-dasharray:none;stroke-opacity:1"
         sodipodi:nodetypes="ccccccc" />
    </g>
    <text
       xml:space="preserve"
       style="font-style:normal;font-weight:normal;font-size:50px;line-height:125%;font-family:sans-serif;letter-spacing:0px;word-spacing:0px;fill:#000000;fill-opacity:1;stroke:none;stroke-width:1px;stroke-linecap:butt;stroke-linejoin:miter;stroke-opacity:1"
       x="390"
       y="1242.3622"
       id="text4153"
       sodipodi:linespacing="125%"><tspan
         sodipodi:role="line"
         id="tspan4155"
         x="390"
         y="1242.3622" /><tspan
         sodipodi:role="line"
         x="390"
         y="1304.8622"
         id="tspan4157" /></text>
    <text
       xml:space="preserve"
       style="font-style:normal;font-weight:normal;font-size:50px;line-height:125%;font-family:sans-serif;letter-spacing:0px;word-spacing:0px;fill:#000000;fill-opacity:1;stroke:none;stroke-width:1px;stroke-linecap:butt;stroke-linejoin:miter;stroke-opacity:1"
       x="140.42458"
       y="1082.1847"
       id="text4150"
       sodipodi:linespacing="125%"><tspan
         sodipodi:role="line"
         id="tspan4152"
         x="1082.1847"
         y="140.42458"
         style="font-style:normal;font-variant:normal;font-weight:600;font-stretch:normal;font-size:17.5px;font-family:Raleway;-inkscape-font-specification:'Raleway Semi-Bold';text-align:center;writing-mode:tb-rl;text-anchor:middle"
         rotate="0" /></text>
    <text
       xml:space="preserve"
       style="font-style:normal;font-weight:normal;font-size:50px;line-height:125%;font-family:sans-serif;letter-spacing:0px;word-spacing:0px;fill:#000000;fill-opacity:1;stroke:none;stroke-width:1px;stroke-linecap:butt;stroke-linejoin:miter;stroke-opacity:1"
       x="80"
       y="1092.3622"
       id="text4158"
       sodipodi:linespacing="125%"><tspan
         sodipodi:role="line"
         id="tspan4160"
         x="80"
         y="1092.3622" /><tspan
         sodipodi:role="line"
         x="80"
         y="1154.8622"
         id="tspan4162" /></text>
    <text
       xml:space="preserve"
       style="font-style:normal;font-weight:normal;font-size:50px;line-height:125%;font-family:sans-serif;letter-spacing:0px;word-spacing:0px;fill:#000000;fill-opacity:1;stroke:none;stroke-width:1px;stroke-linecap:butt;stroke-linejoin:miter;stroke-opacity:1"
       x="-10"
       y="842.36218"
       id="text4178"
       sodipodi:linespacing="125%"><tspan
         sodipodi:role="line"
         id="tspan4180"
         x="-10"
         y="842.36218" /></text>
  </g>
</svg>
